{
  "asset" : {
    "version" : "2.0",
    "generator" : "Abyssus Control Line PlaneModels"
  },
  "scene" : 0,
  "scenes" : [ {
    "name" : "pilot",
    "nodes" : [ 0 ]
  } ],
  "nodes" : [ {
    "name" : "pilot",
    "mesh" : 0
  } ],
  "accessors" : [ {
    "bufferView" : 0,
    "componentType" : 5126,
    "count" : 48,
    "type" : "VEC3",
    "min" : [ -0.18, 0.0, -0.1 ],
    "max" : [ 0.18, 0.85, 0.1 ]
  }, {
    "bufferView" : 1,
    "componentType" : 5126,
    "count" : 48,
    "type" : "VEC3"
  }, {
    "bufferView" : 2,
    "componentType" : 5125,
    "count" : 72,
    "type" : "SCALAR"
  }, {
    "bufferView" : 3,
    "componentType" : 5126,
    "count" : 72,
    "type" : "VEC3",
    "min" : [ -0.3, 0.85, -0.12 ],
    "max" : [ 0.3, 1.5, 0.55 ]
  }, {
    "bufferView" : 4,
    "componentType" : 5126,
    "count" : 72,
    "type" : "VEC3"
  }, {
    "bufferView" : 5,
    "componentType" : 5125,
    "count" : 108,
    "type" : "SCALAR"
  }, {
    "bufferView" : 6,
    "componentType" : 5126,
    "count" : 24,
    "type" : "VEC3",
    "min" : [ -0.11, 1.52, -0.11 ],
    "max" : [ 0.11, 1.78, 0.11 ]
  }, {
    "bufferView" : 7,
    "componentType" : 5126,
    "count" : 24,
    "type" : "VEC3"
  }, {
    "bufferView" : 8,
    "componentType" : 5125,
    "count" : 36,
    "type" : "SCALAR"
  }, {
    "bufferView" : 9,
    "componentType" : 5126,
    "count" : 24,
    "type" : "VEC3",
    "min" : [ -0.26, 1.44, 0.55 ],
    "max" : [ -0.24, 1.56, 0.6 ]
  }, {
    "bufferView" : 10,
    "componentType" : 5126,
    "count" : 24,
    "type" : "VEC3"
  }, {
    "bufferView" : 11,
    "componentType" : 5125,
    "count" : 36,
    "type" : "SCALAR"
  } ],
  "bufferViews" : [ {
    "buffer" : 0,
    "byteOffset" : 0,
    "byteLength" : 576,
    "target" : 34962
  }, {
    "buffer" : 0,
    "byteOffset" : 576,
    "byteLength" : 576,
    "target" : 34962
  }, {
    "buffer" : 0,
    "byteOffset" : 1152,
    "byteLength" : 288,
    "target" : 34963
  }, {
    "buffer" : 0,
    "byteOffset" : 1440,
    "byteLength" : 864,
    "target" : 34962
  }, {
    "buffer" : 0,
    "byteOffset" : 2304,
    "byteLength" : 864,
    "target" : 34962
  }, {
    "buffer" : 0,
    "byteOffset" : 3168,
    "byteLength" : 432,
    "target" : 34963
  }, {
    "buffer" : 0,
    "byteOffset" : 3600,
    "byteLength" : 288,
    "target" : 34962
  }, {
    "buffer" : 0,
    "byteOffset" : 3888,
    "byteLength" : 288,
    "target" : 34962
  }, {
    "buffer" : 0,
    "byteOffset" : 4176,
    "byteLength" : 144,
    "target" : 34963
  }, {
    "buffer" : 0,
    "byteOffset" : 4320,
    "byteLength" : 288,
    "target" : 34962
  }, {
    "buffer" : 0,
    "byteOffset" : 4608,
    "byteLength" : 288,
    "target" : 34962
  }, {
    "buffer" : 0,
    "byteOffset" : 4896,
    "byteLength" : 144,
    "target" : 34963
  } ],
  "meshes" : [ {
    "name" : "pilot",
    "primitives" : [ {
      "attributes" : {
        "POSITION" : 0,
        "NORMAL" : 1
      },
      "indices" : 2,
      "material" : 0
    }, {
      "attributes" : {
        "POSITION" : 3,
        "NORMAL" : 4
      },
      "indices" : 5,
      "material" : 1
    }, {
      "attributes" : {
        "POSITION" : 6,
        "NORMAL" : 7
      },
      "indices" : 8,
      "material" : 2
    }, {
      "attributes" : {
        "POSITION" : 9,
        "NORMAL" : 10
      },
      "indices" : 11,
      "material" : 3
    } ]
  } ],
  "materials" : [ {
    "name" : "trousers",
    "pbrMetallicRoughness" : {
      "baseColorFactor" : [ 0.2, 0.22, 0.3, 1.0 ],
      "metallicFactor" : 0.0,
      "roughnessFactor" : 0.8
    }
  }, {
    "name" : "shirt",
    "pbrMetallicRoughness" : {
      "baseColorFactor" : [ 0.2, 0.55, 0.3, 1.0 ],
      "metallicFactor" : 0.0,
      "roughnessFactor" : 0.8
    }
  }, {
    "name" : "skin",
    "pbrMetallicRoughness" : {
      "baseColorFactor" : [ 0.85, 0.65, 0.5, 1.0 ],
      "metallicFactor" : 0.0,
      "roughnessFactor" : 0.8
    }
  }, {
    "name" : "handle",
    "pbrMetallicRoughness" : {
      "baseColorFactor" : [ 0.1, 0.1, 0.1, 1.0 ],
      "metallicFactor" : 0.0,
      "roughnessFactor" : 0.8
    }
  } ],
  "buffers" : [ {
    "uri" : "model.bin",
    "byteLength" : 5040
  } ]
}
