{
  "asset" : {
    "version" : "2.0",
    "generator" : "Abyssus Control Line PlaneModels"
  },
  "scene" : 0,
  "scenes" : [ {
    "name" : "trainer",
    "nodes" : [ 0 ]
  } ],
  "nodes" : [ {
    "name" : "trainer",
    "mesh" : 0
  } ],
  "accessors" : [ {
    "bufferView" : 0,
    "componentType" : 5126,
    "count" : 48,
    "type" : "VEC3",
    "min" : [ -0.036000002, -0.036000002, -0.49600002 ],
    "max" : [ 0.036000002, 0.15, 0.304 ]
  }, {
    "bufferView" : 1,
    "componentType" : 5126,
    "count" : 48,
    "type" : "VEC3"
  }, {
    "bufferView" : 2,
    "componentType" : 5125,
    "count" : 72,
    "type" : "SCALAR"
  }, {
    "bufferView" : 3,
    "componentType" : 5126,
    "count" : 192,
    "type" : "VEC3",
    "min" : [ -0.14, -0.192, -0.49600002 ],
    "max" : [ 0.5, 0.036000002, 0.368 ]
  }, {
    "bufferView" : 4,
    "componentType" : 5126,
    "count" : 192,
    "type" : "VEC3"
  }, {
    "bufferView" : 5,
    "componentType" : 5125,
    "count" : 288,
    "type" : "SCALAR"
  }, {
    "bufferView" : 6,
    "componentType" : 5126,
    "count" : 48,
    "type" : "VEC3",
    "min" : [ -0.5, 0.0, -0.49600002 ],
    "max" : [ 0.5, 0.016, 0.1 ]
  }, {
    "bufferView" : 7,
    "componentType" : 5126,
    "count" : 48,
    "type" : "VEC3"
  }, {
    "bufferView" : 8,
    "componentType" : 5125,
    "count" : 72,
    "type" : "SCALAR"
  } ],
  "bufferViews" : [ {
    "buffer" : 0,
    "byteOffset" : 0,
    "byteLength" : 576,
    "target" : 34962
  }, {
    "buffer" : 0,
    "byteOffset" : 576,
    "byteLength" : 576,
    "target" : 34962
  }, {
    "buffer" : 0,
    "byteOffset" : 1152,
    "byteLength" : 288,
    "target" : 34963
  }, {
    "buffer" : 0,
    "byteOffset" : 1440,
    "byteLength" : 2304,
    "target" : 34962
  }, {
    "buffer" : 0,
    "byteOffset" : 3744,
    "byteLength" : 2304,
    "target" : 34962
  }, {
    "buffer" : 0,
    "byteOffset" : 6048,
    "byteLength" : 1152,
    "target" : 34963
  }, {
    "buffer" : 0,
    "byteOffset" : 7200,
    "byteLength" : 576,
    "target" : 34962
  }, {
    "buffer" : 0,
    "byteOffset" : 7776,
    "byteLength" : 576,
    "target" : 34962
  }, {
    "buffer" : 0,
    "byteOffset" : 8352,
    "byteLength" : 288,
    "target" : 34963
  } ],
  "meshes" : [ {
    "name" : "trainer",
    "primitives" : [ {
      "attributes" : {
        "POSITION" : 0,
        "NORMAL" : 1
      },
      "indices" : 2,
      "material" : 0
    }, {
      "attributes" : {
        "POSITION" : 3,
        "NORMAL" : 4
      },
      "indices" : 5,
      "material" : 1
    }, {
      "attributes" : {
        "POSITION" : 6,
        "NORMAL" : 7
      },
      "indices" : 8,
      "material" : 2
    } ]
  } ],
  "materials" : [ {
    "name" : "orange",
    "pbrMetallicRoughness" : {
      "baseColorFactor" : [ 0.95, 0.5, 0.1, 1.0 ],
      "metallicFactor" : 0.0,
      "roughnessFactor" : 0.8
    }
  }, {
    "name" : "dark",
    "pbrMetallicRoughness" : {
      "baseColorFactor" : [ 0.12, 0.12, 0.12, 1.0 ],
      "metallicFactor" : 0.0,
      "roughnessFactor" : 0.8
    }
  }, {
    "name" : "cream",
    "pbrMetallicRoughness" : {
      "baseColorFactor" : [ 0.95, 0.92, 0.8, 1.0 ],
      "metallicFactor" : 0.0,
      "roughnessFactor" : 0.8
    }
  } ],
  "buffers" : [ {
    "uri" : "model.bin",
    "byteLength" : 8640
  } ]
}
